<svg width="24" height="24" viewBox="0 0 24 24" fill="none" xmlns="http://www.w3.org/2000/svg">
<path d="M20.8994 13C21.4517 13 21.8994 12.5522 21.8994 12C21.8994 11.4477 21.4517 11 20.8994 11H12.9999V3.10046C12.9999 2.54818 12.5522 2.10046 11.9999 2.10046C11.4476 2.10046 10.9999 2.54818 10.9999 3.10046L10.9999 11L3.1004 11C2.54812 11 2.1004 11.4477 2.1004 12C2.1004 12.5522 2.54812 13 3.1004 13H10.9999L10.9999 20.8995C10.9999 21.4517 11.4476 21.8995 11.9999 21.8995C12.5522 21.8995 12.9999 21.4517 12.9999 20.8995V13H20.8994Z" fill="white"/>
</svg>
